<mxfile host="65bd71144e">
    <diagram id="iXSVtRKFKXMKwB8OtUEW" name="第 1 页">
        <mxGraphModel dx="898" dy="1849" grid="1" gridSize="10" guides="1" tooltips="1" connect="1" arrows="1" fold="1" page="1" pageScale="1" pageWidth="827" pageHeight="1169" math="0" shadow="0">
            <root>
                <mxCell id="0"/>
                <mxCell id="1" parent="0"/>
                <mxCell id="7" style="edgeStyle=none;sketch=1;html=1;exitX=0.25;exitY=0;exitDx=0;exitDy=0;entryX=0.25;entryY=1;entryDx=0;entryDy=0;" edge="1" parent="1" source="2" target="4">
                    <mxGeometry relative="1" as="geometry">
                        <Array as="points"/>
                    </mxGeometry>
                </mxCell>
                <mxCell id="13" value="2.1调用事件（&lt;span style=&quot;color: rgb(220 , 220 , 170) ; background-color: rgb(30 , 30 , 30) ; font-family: &amp;#34;menlo&amp;#34; , &amp;#34;monaco&amp;#34; , &amp;#34;courier new&amp;#34; , monospace ; font-size: 12px&quot;&gt;invoke&lt;/span&gt;）" style="edgeLabel;html=1;align=center;verticalAlign=middle;resizable=0;points=[];" vertex="1" connectable="0" parent="7">
                    <mxGeometry x="0.3091" y="-1" relative="1" as="geometry">
                        <mxPoint as="offset"/>
                    </mxGeometry>
                </mxCell>
                <mxCell id="2" value="classin" style="rounded=1;whiteSpace=wrap;html=1;sketch=1;" vertex="1" parent="1">
                    <mxGeometry x="140" y="280" width="120" height="60" as="geometry"/>
                </mxCell>
                <mxCell id="9" style="edgeStyle=none;sketch=1;html=1;exitX=0.25;exitY=0;exitDx=0;exitDy=0;entryX=0.25;entryY=1;entryDx=0;entryDy=0;" edge="1" parent="1" source="3" target="5">
                    <mxGeometry relative="1" as="geometry"/>
                </mxCell>
                <mxCell id="10" value="1.1注册事件（&lt;span style=&quot;color: rgb(220 , 220 , 170) ; background-color: rgb(30 , 30 , 30) ; font-family: &amp;#34;menlo&amp;#34; , &amp;#34;monaco&amp;#34; , &amp;#34;courier new&amp;#34; , monospace ; font-size: 12px&quot;&gt;registerMethod&lt;/span&gt;）" style="edgeLabel;html=1;align=center;verticalAlign=middle;resizable=0;points=[];" vertex="1" connectable="0" parent="9">
                    <mxGeometry x="0.3455" y="-3" relative="1" as="geometry">
                        <mxPoint as="offset"/>
                    </mxGeometry>
                </mxCell>
                <mxCell id="3" value="teacherin" style="rounded=1;whiteSpace=wrap;html=1;sketch=1;" vertex="1" parent="1">
                    <mxGeometry x="460" y="280" width="120" height="60" as="geometry"/>
                </mxCell>
                <mxCell id="41" style="edgeStyle=none;sketch=0;html=1;exitX=0.75;exitY=1;exitDx=0;exitDy=0;entryX=0.75;entryY=0;entryDx=0;entryDy=0;shadow=0;fontColor=#FFFFFF;strokeColor=default;" edge="1" parent="1" source="4" target="2">
                    <mxGeometry relative="1" as="geometry"/>
                </mxCell>
                <mxCell id="42" value="3.4 返回结果" style="edgeLabel;html=1;align=center;verticalAlign=middle;resizable=0;points=[];fontColor=#FFFFFF;" vertex="1" connectable="0" parent="41">
                    <mxGeometry x="0.0091" relative="1" as="geometry">
                        <mxPoint as="offset"/>
                    </mxGeometry>
                </mxCell>
                <mxCell id="4" value="发布订阅-classin" style="rounded=1;whiteSpace=wrap;html=1;sketch=1;" vertex="1" parent="1">
                    <mxGeometry x="140" y="110" width="120" height="60" as="geometry"/>
                </mxCell>
                <mxCell id="16" value="3.2 监听到message信息&lt;br&gt;并执行调用事件ack&lt;br&gt;并发送message信息" style="edgeStyle=none;sketch=1;html=1;exitX=0.25;exitY=0;exitDx=0;exitDy=0;entryX=0.75;entryY=0;entryDx=0;entryDy=0;" edge="1" parent="1" source="5" target="5">
                    <mxGeometry relative="1" as="geometry">
                        <mxPoint x="490" y="70" as="targetPoint"/>
                        <Array as="points">
                            <mxPoint x="490" y="60"/>
                            <mxPoint x="550" y="60"/>
                        </Array>
                    </mxGeometry>
                </mxCell>
                <mxCell id="5" value="发布订阅-teacherin" style="rounded=1;whiteSpace=wrap;html=1;sketch=1;" vertex="1" parent="1">
                    <mxGeometry x="460" y="110" width="120" height="60" as="geometry"/>
                </mxCell>
                <mxCell id="20" value="classin" style="rounded=1;whiteSpace=wrap;html=1;arcSize=40;fontColor=#000000;fillColor=#ffffc0;strokeColor=default;sketch=0;shadow=0;" vertex="1" parent="1">
                    <mxGeometry x="110" y="520" width="120" height="40" as="geometry"/>
                </mxCell>
                <mxCell id="21" value="" style="edgeStyle=orthogonalEdgeStyle;html=1;verticalAlign=bottom;endArrow=open;endSize=8;strokeColor=default;sketch=0;fontColor=#FFFFFF;shadow=0;startArrow=none;" edge="1" parent="1">
                    <mxGeometry relative="1" as="geometry">
                        <mxPoint x="170" y="1090" as="targetPoint"/>
                        <mxPoint x="170" y="890" as="sourcePoint"/>
                    </mxGeometry>
                </mxCell>
                <mxCell id="23" value="teacherin" style="rounded=1;whiteSpace=wrap;html=1;arcSize=40;fontColor=#000000;fillColor=#ffffc0;strokeColor=default;sketch=0;shadow=0;" vertex="1" parent="1">
                    <mxGeometry x="414" y="520" width="120" height="40" as="geometry"/>
                </mxCell>
                <mxCell id="24" value="" style="edgeStyle=orthogonalEdgeStyle;html=1;verticalAlign=bottom;endArrow=open;endSize=8;strokeColor=default;sketch=0;fontColor=#FFFFFF;shadow=0;" edge="1" source="23" parent="1">
                    <mxGeometry relative="1" as="geometry">
                        <mxPoint x="474" y="1090" as="targetPoint"/>
                    </mxGeometry>
                </mxCell>
                <mxCell id="30" value="" style="html=1;points=[];perimeter=orthogonalPerimeter;shadow=0;sketch=1;fontColor=#FFFFFF;strokeColor=default;" vertex="1" parent="1">
                    <mxGeometry x="165" y="600" width="10" height="60" as="geometry"/>
                </mxCell>
                <mxCell id="31" value="&lt;span style=&quot;color: rgb(240 , 240 , 240) ; text-align: center&quot;&gt;1.1注册事件（&lt;/span&gt;&lt;span style=&quot;text-align: center ; color: rgb(220 , 220 , 170) ; background-color: rgb(30 , 30 , 30) ; font-family: &amp;#34;menlo&amp;#34; , &amp;#34;monaco&amp;#34; , &amp;#34;courier new&amp;#34; , monospace ; font-size: 12px&quot;&gt;registerMethod&lt;/span&gt;&lt;span style=&quot;color: rgb(240 , 240 , 240) ; text-align: center&quot;&gt;）&lt;/span&gt;" style="edgeStyle=orthogonalEdgeStyle;html=1;align=left;spacingLeft=2;endArrow=block;rounded=0;entryX=1;entryY=0;shadow=0;sketch=0;fontColor=#FFFFFF;strokeColor=default;" edge="1" target="30" parent="1">
                    <mxGeometry relative="1" as="geometry">
                        <mxPoint x="170" y="580" as="sourcePoint"/>
                        <Array as="points">
                            <mxPoint x="200" y="580"/>
                        </Array>
                    </mxGeometry>
                </mxCell>
                <mxCell id="35" style="edgeStyle=none;sketch=0;html=1;exitX=1;exitY=0.25;exitDx=0;exitDy=0;entryX=1;entryY=0.75;entryDx=0;entryDy=0;shadow=0;fontColor=#FFFFFF;strokeColor=default;" edge="1" parent="1" source="5" target="5">
                    <mxGeometry relative="1" as="geometry">
                        <Array as="points">
                            <mxPoint x="660" y="125"/>
                            <mxPoint x="660" y="140"/>
                            <mxPoint x="660" y="155"/>
                        </Array>
                    </mxGeometry>
                </mxCell>
                <mxCell id="36" value="1.2 注册保存（syn）" style="edgeLabel;html=1;align=center;verticalAlign=middle;resizable=0;points=[];fontColor=#FFFFFF;" vertex="1" connectable="0" parent="35">
                    <mxGeometry x="-0.0105" relative="1" as="geometry">
                        <mxPoint as="offset"/>
                    </mxGeometry>
                </mxCell>
                <mxCell id="37" value="2.2执行事件（syn）&lt;br&gt;并发送message信息" style="edgeStyle=none;sketch=0;html=1;exitX=0;exitY=0.75;exitDx=0;exitDy=0;entryX=0;entryY=0.25;entryDx=0;entryDy=0;shadow=0;fontColor=#FFFFFF;strokeColor=default;" edge="1" parent="1" source="4" target="4">
                    <mxGeometry relative="1" as="geometry">
                        <Array as="points">
                            <mxPoint x="60" y="155"/>
                            <mxPoint x="60" y="140"/>
                            <mxPoint x="60" y="125"/>
                        </Array>
                    </mxGeometry>
                </mxCell>
                <mxCell id="38" value="3.1 注册事件ack" style="edgeStyle=none;sketch=0;html=1;exitX=0.25;exitY=0;exitDx=0;exitDy=0;entryX=0.75;entryY=0;entryDx=0;entryDy=0;shadow=0;fontColor=#FFFFFF;strokeColor=default;elbow=vertical;" edge="1" parent="1" source="4" target="4">
                    <mxGeometry relative="1" as="geometry">
                        <Array as="points">
                            <mxPoint x="170" y="60"/>
                            <mxPoint x="230" y="60"/>
                        </Array>
                    </mxGeometry>
                </mxCell>
                <mxCell id="39" style="edgeStyle=none;sketch=0;html=1;exitX=1;exitY=0.25;exitDx=0;exitDy=0;entryX=1;entryY=0.75;entryDx=0;entryDy=0;shadow=0;fontColor=#FFFFFF;strokeColor=default;" edge="1" parent="1" source="4" target="4">
                    <mxGeometry relative="1" as="geometry">
                        <Array as="points">
                            <mxPoint x="340" y="125"/>
                            <mxPoint x="340" y="140"/>
                            <mxPoint x="340" y="155"/>
                        </Array>
                    </mxGeometry>
                </mxCell>
                <mxCell id="40" value="3.3 监听到message信息&lt;br&gt;并返回ack事件结果" style="edgeLabel;html=1;align=center;verticalAlign=middle;resizable=0;points=[];fontColor=#FFFFFF;" vertex="1" connectable="0" parent="39">
                    <mxGeometry x="-0.0105" y="1" relative="1" as="geometry">
                        <mxPoint as="offset"/>
                    </mxGeometry>
                </mxCell>
                <mxCell id="47" value="1.2 注册保存（syn）" style="edgeStyle=orthogonalEdgeStyle;html=1;align=left;spacingLeft=2;endArrow=block;rounded=0;entryX=1;entryY=0;shadow=0;sketch=0;fontColor=#FFFFFF;strokeColor=default;" edge="1" parent="1">
                    <mxGeometry relative="1" as="geometry">
                        <mxPoint x="175" y="640" as="sourcePoint"/>
                        <Array as="points">
                            <mxPoint x="200" y="640"/>
                        </Array>
                        <mxPoint x="175" y="660" as="targetPoint"/>
                    </mxGeometry>
                </mxCell>
                <mxCell id="49" value="" style="html=1;points=[];perimeter=orthogonalPerimeter;shadow=0;sketch=1;fontColor=#FFFFFF;strokeColor=default;" vertex="1" parent="1">
                    <mxGeometry x="469" y="680" width="10" height="90" as="geometry"/>
                </mxCell>
                <mxCell id="50" value="&lt;span style=&quot;color: rgb(240 , 240 , 240) ; text-align: center&quot;&gt;2.1调用事件（&lt;/span&gt;&lt;span style=&quot;text-align: center ; color: rgb(220 , 220 , 170) ; background-color: rgb(30 , 30 , 30) ; font-family: &amp;#34;menlo&amp;#34; , &amp;#34;monaco&amp;#34; , &amp;#34;courier new&amp;#34; , monospace ; font-size: 12px&quot;&gt;invoke&lt;/span&gt;&lt;span style=&quot;color: rgb(240 , 240 , 240) ; text-align: center&quot;&gt;）&lt;/span&gt;" style="edgeStyle=orthogonalEdgeStyle;html=1;align=left;spacingLeft=2;endArrow=block;rounded=0;entryX=1;entryY=0;shadow=0;sketch=0;fontColor=#FFFFFF;strokeColor=default;" edge="1" target="49" parent="1">
                    <mxGeometry relative="1" as="geometry">
                        <mxPoint x="474" y="660" as="sourcePoint"/>
                        <Array as="points">
                            <mxPoint x="499" y="660"/>
                        </Array>
                    </mxGeometry>
                </mxCell>
                <mxCell id="51" value="&lt;span style=&quot;color: rgb(240 , 240 , 240) ; text-align: center&quot;&gt;2.1调用事件（&lt;/span&gt;&lt;span style=&quot;text-align: center ; color: rgb(220 , 220 , 170) ; background-color: rgb(30 , 30 , 30) ; font-family: &amp;#34;menlo&amp;#34; , &amp;#34;monaco&amp;#34; , &amp;#34;courier new&amp;#34; , monospace ; font-size: 12px&quot;&gt;invoke&lt;/span&gt;&lt;span style=&quot;color: rgb(240 , 240 , 240) ; text-align: center&quot;&gt;）&lt;/span&gt;" style="edgeStyle=orthogonalEdgeStyle;html=1;align=left;spacingLeft=2;endArrow=block;rounded=0;entryX=1;entryY=0;shadow=0;sketch=0;fontColor=#FFFFFF;strokeColor=default;" edge="1" parent="1" target="49">
                    <mxGeometry relative="1" as="geometry">
                        <mxPoint x="474" y="660" as="sourcePoint"/>
                        <Array as="points">
                            <mxPoint x="499" y="660"/>
                            <mxPoint x="499" y="680"/>
                        </Array>
                        <mxPoint x="479" y="680" as="targetPoint"/>
                    </mxGeometry>
                </mxCell>
                <mxCell id="54" value="&lt;span style=&quot;text-align: center&quot;&gt;2.2执行事件（syn）&lt;/span&gt;&lt;br style=&quot;text-align: center&quot;&gt;&lt;span style=&quot;text-align: center&quot;&gt;并发送message信息&lt;/span&gt;" style="edgeStyle=orthogonalEdgeStyle;html=1;align=left;spacingLeft=2;endArrow=block;rounded=0;entryX=0.9;entryY=0.994;shadow=0;sketch=0;fontColor=#FFFFFF;strokeColor=default;entryDx=0;entryDy=0;entryPerimeter=0;" edge="1" parent="1" target="49">
                    <mxGeometry x="-0.0071" y="6" relative="1" as="geometry">
                        <mxPoint x="479" y="750" as="sourcePoint"/>
                        <Array as="points">
                            <mxPoint x="504" y="750"/>
                            <mxPoint x="504" y="770"/>
                        </Array>
                        <mxPoint x="484" y="770" as="targetPoint"/>
                        <mxPoint as="offset"/>
                    </mxGeometry>
                </mxCell>
                <mxCell id="65" value="" style="edgeStyle=orthogonalEdgeStyle;html=1;verticalAlign=bottom;endArrow=none;endSize=8;strokeColor=default;sketch=0;fontColor=#FFFFFF;shadow=0;" edge="1" parent="1" source="20">
                    <mxGeometry relative="1" as="geometry">
                        <mxPoint x="170" y="890" as="targetPoint"/>
                        <mxPoint x="170" y="560" as="sourcePoint"/>
                    </mxGeometry>
                </mxCell>
                <mxCell id="75" value="" style="html=1;points=[];perimeter=orthogonalPerimeter;shadow=0;sketch=1;fontColor=#FFFFFF;strokeColor=default;" vertex="1" parent="1">
                    <mxGeometry x="165" y="800" width="10" height="30" as="geometry"/>
                </mxCell>
                <mxCell id="76" value="&lt;span style=&quot;text-align: center&quot;&gt;3.1 注册事件ack&lt;/span&gt;" style="edgeStyle=orthogonalEdgeStyle;html=1;align=left;spacingLeft=2;endArrow=block;rounded=0;entryX=1;entryY=0;shadow=0;sketch=0;fontColor=#FFFFFF;strokeColor=default;" edge="1" target="75" parent="1">
                    <mxGeometry relative="1" as="geometry">
                        <mxPoint x="170" y="780" as="sourcePoint"/>
                        <Array as="points">
                            <mxPoint x="195" y="780"/>
                        </Array>
                    </mxGeometry>
                </mxCell>
                <mxCell id="77" value="&lt;span style=&quot;text-align: center&quot;&gt;3.1 注册事件ack&lt;/span&gt;" style="edgeStyle=orthogonalEdgeStyle;html=1;align=left;spacingLeft=2;endArrow=block;rounded=0;entryX=1;entryY=0;shadow=0;sketch=0;fontColor=#FFFFFF;strokeColor=default;" edge="1" target="75" parent="1">
                    <mxGeometry relative="1" as="geometry">
                        <mxPoint x="170" y="780" as="sourcePoint"/>
                        <Array as="points">
                            <mxPoint x="195" y="780"/>
                            <mxPoint x="195" y="800"/>
                        </Array>
                        <mxPoint x="175" y="800" as="targetPoint"/>
                    </mxGeometry>
                </mxCell>
                <mxCell id="78" value="&lt;span style=&quot;color: rgb(240 , 240 , 240) ; text-align: center&quot;&gt;3.2 监听到message信息&lt;/span&gt;&lt;br style=&quot;color: rgb(240 , 240 , 240) ; text-align: center&quot;&gt;&lt;span style=&quot;color: rgb(240 , 240 , 240) ; text-align: center&quot;&gt;并执行调用事件ack&lt;/span&gt;&lt;br style=&quot;color: rgb(240 , 240 , 240) ; text-align: center&quot;&gt;&lt;span style=&quot;color: rgb(240 , 240 , 240) ; text-align: center&quot;&gt;并发送message信息&lt;/span&gt;" style="edgeStyle=orthogonalEdgeStyle;html=1;align=left;spacingLeft=2;endArrow=block;rounded=0;entryX=1;entryY=0;shadow=0;sketch=0;fontColor=#FFFFFF;strokeColor=default;" edge="1" target="79" parent="1">
                    <mxGeometry relative="1" as="geometry">
                        <mxPoint x="474" y="830" as="sourcePoint"/>
                        <Array as="points">
                            <mxPoint x="499" y="830"/>
                        </Array>
                    </mxGeometry>
                </mxCell>
                <mxCell id="79" value="" style="html=1;points=[];perimeter=orthogonalPerimeter;shadow=0;sketch=1;fontColor=#FFFFFF;strokeColor=default;" vertex="1" parent="1">
                    <mxGeometry x="469" y="850" width="10" height="40" as="geometry"/>
                </mxCell>
                <mxCell id="80" value="" style="html=1;points=[];perimeter=orthogonalPerimeter;shadow=0;sketch=1;fontColor=#FFFFFF;strokeColor=default;" vertex="1" parent="1">
                    <mxGeometry x="165" y="930" width="10" height="90" as="geometry"/>
                </mxCell>
                <mxCell id="81" value="&lt;span style=&quot;color: rgb(240 , 240 , 240) ; text-align: center&quot;&gt;2.1调用事件（&lt;/span&gt;&lt;span style=&quot;text-align: center ; color: rgb(220 , 220 , 170) ; background-color: rgb(30 , 30 , 30) ; font-family: &amp;#34;menlo&amp;#34; , &amp;#34;monaco&amp;#34; , &amp;#34;courier new&amp;#34; , monospace ; font-size: 12px&quot;&gt;invoke&lt;/span&gt;&lt;span style=&quot;color: rgb(240 , 240 , 240) ; text-align: center&quot;&gt;）&lt;/span&gt;" style="edgeStyle=orthogonalEdgeStyle;html=1;align=left;spacingLeft=2;endArrow=block;rounded=0;entryX=1;entryY=0;shadow=0;sketch=0;fontColor=#FFFFFF;strokeColor=default;" edge="1" target="80" parent="1">
                    <mxGeometry relative="1" as="geometry">
                        <mxPoint x="170" y="910" as="sourcePoint"/>
                        <Array as="points">
                            <mxPoint x="195" y="910"/>
                        </Array>
                    </mxGeometry>
                </mxCell>
                <mxCell id="82" value="&lt;span style=&quot;text-align: center&quot;&gt;3.3 监听到message信息&lt;/span&gt;&lt;br style=&quot;text-align: center&quot;&gt;&lt;span style=&quot;text-align: center&quot;&gt;并返回ack事件结果&lt;/span&gt;" style="edgeStyle=orthogonalEdgeStyle;html=1;align=left;spacingLeft=2;endArrow=block;rounded=0;entryX=1;entryY=0;shadow=0;sketch=0;fontColor=#FFFFFF;strokeColor=default;" edge="1" target="80" parent="1">
                    <mxGeometry relative="1" as="geometry">
                        <mxPoint x="170" y="910" as="sourcePoint"/>
                        <Array as="points">
                            <mxPoint x="195" y="910"/>
                            <mxPoint x="195" y="930"/>
                        </Array>
                        <mxPoint x="175" y="930" as="targetPoint"/>
                    </mxGeometry>
                </mxCell>
                <mxCell id="83" value="&lt;span style=&quot;text-align: center&quot;&gt;3.4 返回结果&lt;/span&gt;" style="edgeStyle=orthogonalEdgeStyle;html=1;align=left;spacingLeft=2;endArrow=block;rounded=0;entryX=0.9;entryY=0.994;shadow=0;sketch=0;fontColor=#FFFFFF;strokeColor=default;entryDx=0;entryDy=0;entryPerimeter=0;" edge="1" target="80" parent="1">
                    <mxGeometry x="-0.0071" y="6" relative="1" as="geometry">
                        <mxPoint x="175" y="1000" as="sourcePoint"/>
                        <Array as="points">
                            <mxPoint x="200" y="1000"/>
                            <mxPoint x="200" y="1020"/>
                        </Array>
                        <mxPoint x="180" y="1020" as="targetPoint"/>
                        <mxPoint as="offset"/>
                    </mxGeometry>
                </mxCell>
                <mxCell id="84" value="流程图" style="shape=document;whiteSpace=wrap;html=1;boundedLbl=1;shadow=0;sketch=1;fontColor=#FFFFFF;strokeColor=default;" vertex="1" parent="1">
                    <mxGeometry x="30" y="-80" width="120" height="80" as="geometry"/>
                </mxCell>
                <mxCell id="85" value="时序图" style="shape=document;whiteSpace=wrap;html=1;boundedLbl=1;shadow=0;sketch=1;fontColor=#FFFFFF;strokeColor=default;" vertex="1" parent="1">
                    <mxGeometry x="30" y="420" width="120" height="80" as="geometry"/>
                </mxCell>
            </root>
        </mxGraphModel>
    </diagram>
</mxfile>